<?xml version="1.0" standalone="no"?><!DOCTYPE svg PUBLIC "-//W3C//DTD SVG 1.1//EN" "http://www.w3.org/Graphics/SVG/1.1/DTD/svg11.dtd"><svg t="1759034707715" class="icon" viewBox="0 0 1024 1024" version="1.1" xmlns="http://www.w3.org/2000/svg" p-id="11534" xmlns:xlink="http://www.w3.org/1999/xlink" width="200" height="200"><path d="M880.64 122.88H143.36a102.4 102.4 0 0 0-102.4 102.4v573.44a102.4 102.4 0 0 0 102.4 102.4h737.28a102.4 102.4 0 0 0 102.4-102.4V225.28a102.4 102.4 0 0 0-102.4-102.4z m61.44 675.84a61.44 61.44 0 0 1-61.44 61.44H143.36a61.44 61.44 0 0 1-61.44-61.44V225.28a61.44 61.44 0 0 1 61.44-61.44h737.28a61.44 61.44 0 0 1 61.44 61.44z" fill="#1296db" p-id="11535"></path><path d="M399.5648 298.1888a18.8416 18.8416 0 0 0-14.336-9.4208 18.2272 18.2272 0 0 0-20.48 9.216L143.36 685.4656A20.48 20.48 0 0 0 160.3584 716.8H614.4a20.48 20.48 0 0 0 17.6128-31.3344zM382.3616 348.16l196.1984 327.68H195.3792z" fill="#1296db" p-id="11536"></path><path d="M368.64 430.08l40.96 0 0 143.36-40.96 0 0-143.36Z" fill="#1296db" p-id="11537"></path><path d="M387.4816 634.88m-20.48 0a20.48 20.48 0 1 0 40.96 0 20.48 20.48 0 1 0-40.96 0Z" fill="#1296db" p-id="11538"></path><path d="M634.88 348.16l266.24 0 0 40.96-266.24 0 0-40.96Z" fill="#1296db" p-id="11539"></path><path d="M655.36 491.52h143.36a20.48 20.48 0 0 0 0-40.96h-143.36a20.48 20.48 0 0 0 0 40.96z" fill="#1296db" p-id="11540"></path><path d="M634.88 552.96l245.76 0 0 40.96-245.76 0 0-40.96Z" fill="#1296db" p-id="11541"></path></svg>