<?xml version="1.0" standalone="no"?><!DOCTYPE svg PUBLIC "-//W3C//DTD SVG 1.1//EN" "http://www.w3.org/Graphics/SVG/1.1/DTD/svg11.dtd"><svg t="1759034686326" class="icon" viewBox="0 0 1126 1024" version="1.1" xmlns="http://www.w3.org/2000/svg" p-id="10484" xmlns:xlink="http://www.w3.org/1999/xlink" width="219.921875" height="200"><path d="M350.718772 11.369944l752.278968 433.969681a45.004642 45.004642 0 0 1 16.025543 61.439785l-23.603117 41.113456c-11.775959 20.479928-27.289504 38.143866-45.56784 52.326217a39.065463 39.065463 0 0 1-3.276789 31.59029l-103.065239 178.431375c-11.110361 19.96793-32.255887 32.255887-55.142207 32.102288v0.511998a63.026979 63.026979 0 0 1-32.102288-8.49917l-61.593384-35.532676a82.482911 82.482911 0 0 1-54.783809 26.931106l-7.321574 0.204799-8.806369-0.409598a83.455708 83.455708 0 0 1-33.382283-10.803163l-162.457032-93.746871-77.823727 135.372326a58.162996 58.162996 0 0 1-50.175825 28.774299l-187.288944-0.0512v15.155147A123.749967 123.749967 0 0 1 88.882889 1024H45.055842A45.158242 45.158242 0 0 1 0 978.995358v-340.27401a45.158242 45.158242 0 0 1 45.004642-45.055842h43.878247a124.159565 124.159565 0 0 1 120.831577 97.27966h95.692465l43.161449-73.369344-221.900023-127.999552a130.354744 130.354744 0 0 1-48.230232-176.844181l101.887644-176.792981 0.563198 0.255999L235.160777 42.243436c11.161561-19.455932 29.593496-33.638282 51.251021-39.423862A85.196502 85.196502 0 0 1 350.718772 11.369944zM88.882889 661.19807H67.583763v295.269366h21.350326a56.422203 56.422203 0 0 0 56.268603-56.217403v-182.78336a56.422203 56.422203 0 0 0-56.268603-56.268603z m317.643688-10.239964l-49.868625 84.684503a48.230231 48.230231 0 0 1-39.372662 22.527921v0.307199l-104.652434-0.051199v58.982193h182.271362l74.546939-130.098745-62.92458-36.351872z m486.961496-19.251133l-57.650998 99.532452 45.61904 26.623906 70.450953-120.831577a193.688922 193.688922 0 0 1-12.902355 0.409599v0.153599c-15.411146 0-30.719892-1.945593-45.51664-5.887979zM208.946469 244.277929L147.097085 352.258351a50.790222 50.790222 0 0 0 18.636735 69.273358l564.017226 325.63086a5.63198 5.63198 0 0 0 7.884772-2.252792l5.478381-9.471967a39.628661 39.628661 0 0 1 10.598363-18.380736l68.914959-119.039583L208.946469 244.226729z m363.774726 262.143083l118.425186 68.607759a27.801503 27.801503 0 0 1 10.137565 38.297466l-2.252793 3.379189a27.647903 27.647903 0 0 1-38.246266 10.137564h0.307199l-118.783584-68.65896a27.801503 27.801503 0 0 1-10.086365-38.246266l2.201593-3.379188a27.801503 27.801503 0 0 1 38.297465-10.137564zM305.66293 79.363306a7.577573 7.577573 0 0 0-3.379188 2.713591L248.114332 175.106971l484.606303 280.421419 155.493856 89.804485a101.887643 101.887643 0 0 0 77.15813 10.137565c26.111909-6.655977 48.332631-23.756717 61.439785-47.257435l6.707177-11.929558L310.270914 79.363306a6.604777 6.604777 0 0 0-4.505584 0z m33.587083 316.312493a30.361494 30.361494 0 1 1 30.207894 52.735816 30.361494 30.361494 0 0 1-30.207894-52.735816z m-99.020454-57.343799a30.361494 30.361494 0 1 1 30.207894 52.684615 30.361494 30.361494 0 0 1-30.207894-52.735815z" fill="#1296db" p-id="10485"></path></svg>